<?xml version="1.0" encoding="UTF-8" standalone="no"?>
<!DOCTYPE svg PUBLIC "-//W3C//DTD SVG 1.1//EN"
 "http://www.w3.org/Graphics/SVG/1.1/DTD/svg11.dtd">
<!-- Generated by graphviz version 2.43.0 (0)
 -->
<!-- Title: smsdsending Pages: 1 -->
<svg width="768pt" height="816pt"
 viewBox="0.00 0.00 768.08 816.00" xmlns="http://www.w3.org/2000/svg" xmlns:xlink="http://www.w3.org/1999/xlink">
<g id="graph0" class="graph" transform="scale(1 1) rotate(0) translate(4 812)">
<title>smsdsending</title>
<polygon fill="white" stroke="transparent" points="-4,4 -4,-812 764.08,-812 764.08,4 -4,4"/>
<!-- new message -->
<g id="node1" class="node">
<title>new message</title>
<polygon fill="none" stroke="black" points="287.84,-808 174.84,-808 174.84,-772 287.84,-772 287.84,-808"/>
<text text-anchor="middle" x="231.34" y="-786.3" font-family="Times,serif" font-size="14.00">new message</text>
</g>
<!-- manually created SMS -->
<g id="node5" class="node">
<title>manually created SMS</title>
<ellipse fill="none" stroke="black" cx="116.34" cy="-717" rx="116.18" ry="18"/>
<text text-anchor="middle" x="116.34" y="-713.3" font-family="Times,serif" font-size="14.00">manually created SMS</text>
</g>
<!-- new message&#45;&gt;manually created SMS -->
<g id="edge1" class="edge">
<title>new message&#45;&gt;manually created SMS</title>
<path fill="none" stroke="black" d="M203.79,-771.99C188.32,-762.44 168.83,-750.41 152.18,-740.13"/>
<polygon fill="black" stroke="black" points="153.61,-736.9 143.26,-734.62 149.93,-742.85 153.61,-736.9"/>
</g>
<!-- CreateOutboxSMS -->
<g id="node6" class="node">
<title>CreateOutboxSMS</title>
<ellipse fill="none" stroke="black" cx="348.34" cy="-717" rx="97.48" ry="18"/>
<text text-anchor="middle" x="348.34" y="-713.3" font-family="Times,serif" font-size="14.00">CreateOutboxSMS</text>
</g>
<!-- new message&#45;&gt;CreateOutboxSMS -->
<g id="edge2" class="edge">
<title>new message&#45;&gt;CreateOutboxSMS</title>
<path fill="none" stroke="black" d="M259.36,-771.99C275.37,-762.28 295.59,-750.01 312.72,-739.62"/>
<polygon fill="black" stroke="black" points="314.62,-742.56 321.35,-734.38 310.98,-736.57 314.62,-742.56"/>
</g>
<!-- message in storage -->
<g id="node2" class="node">
<title>message in storage</title>
<polygon fill="none" stroke="black" points="308.84,-662 153.84,-662 153.84,-626 308.84,-626 308.84,-662"/>
<text text-anchor="middle" x="231.34" y="-640.3" font-family="Times,serif" font-size="14.00">message in storage</text>
</g>
<!-- FindOutboxSMS -->
<g id="node7" class="node">
<title>FindOutboxSMS</title>
<ellipse fill="none" stroke="black" cx="231.34" cy="-571" rx="87.18" ry="18"/>
<text text-anchor="middle" x="231.34" y="-567.3" font-family="Times,serif" font-size="14.00">FindOutboxSMS</text>
</g>
<!-- message in storage&#45;&gt;FindOutboxSMS -->
<g id="edge5" class="edge">
<title>message in storage&#45;&gt;FindOutboxSMS</title>
<path fill="none" stroke="black" d="M231.34,-625.81C231.34,-617.79 231.34,-608.05 231.34,-599.07"/>
<polygon fill="black" stroke="black" points="234.84,-599.03 231.34,-589.03 227.84,-599.03 234.84,-599.03"/>
</g>
<!-- message sent -->
<g id="node3" class="node">
<title>message sent</title>
<polygon fill="none" stroke="black" points="642.34,-109 528.34,-109 528.34,-73 642.34,-73 642.34,-109"/>
<text text-anchor="middle" x="585.34" y="-87.3" font-family="Times,serif" font-size="14.00">message sent</text>
</g>
<!-- error sending message -->
<g id="node4" class="node">
<title>error sending message</title>
<polygon fill="none" stroke="black" points="486.84,-36 305.84,-36 305.84,0 486.84,0 486.84,-36"/>
<text text-anchor="middle" x="396.34" y="-14.3" font-family="Times,serif" font-size="14.00">error sending message</text>
</g>
<!-- manually created SMS&#45;&gt;message in storage -->
<g id="edge3" class="edge">
<title>manually created SMS&#45;&gt;message in storage</title>
<path fill="none" stroke="black" d="M143.3,-699.35C158.65,-689.88 178.09,-677.88 194.79,-667.56"/>
<polygon fill="black" stroke="black" points="197.08,-670.27 203.75,-662.04 193.4,-664.31 197.08,-670.27"/>
</g>
<!-- CreateOutboxSMS&#45;&gt;message in storage -->
<g id="edge4" class="edge">
<title>CreateOutboxSMS&#45;&gt;message in storage</title>
<path fill="none" stroke="black" d="M321.2,-699.53C305.45,-689.97 285.39,-677.8 268.23,-667.38"/>
<polygon fill="black" stroke="black" points="269.92,-664.31 259.55,-662.12 266.28,-670.3 269.92,-664.31"/>
</g>
<!-- AddSentSMSInfo(ERROR) -->
<g id="node8" class="node">
<title>AddSentSMSInfo(ERROR)</title>
<ellipse fill="none" stroke="black" cx="321.34" cy="-251" rx="131.88" ry="18"/>
<text text-anchor="middle" x="321.34" y="-247.3" font-family="Times,serif" font-size="14.00">AddSentSMSInfo(ERROR)</text>
</g>
<!-- FindOutboxSMS&#45;&gt;AddSentSMSInfo(ERROR) -->
<g id="edge6" class="edge">
<title>FindOutboxSMS&#45;&gt;AddSentSMSInfo(ERROR)</title>
<path fill="none" stroke="black" stroke-dasharray="1,5" d="M226.8,-552.92C223.4,-538.62 219.34,-517.63 219.34,-499 219.34,-499 219.34,-499 219.34,-337 219.34,-307.72 244.45,-286.57 269.76,-272.69"/>
<polygon fill="black" stroke="black" points="271.4,-275.78 278.67,-268.08 268.18,-269.56 271.4,-275.78"/>
<text text-anchor="middle" x="239.34" y="-421.3" font-family="Times,serif" font-size="14.00">Error</text>
</g>
<!-- check duplicates -->
<g id="node9" class="node">
<title>check duplicates</title>
<ellipse fill="none" stroke="black" cx="335.34" cy="-498" rx="87.99" ry="18"/>
<text text-anchor="middle" x="335.34" y="-494.3" font-family="Times,serif" font-size="14.00">check duplicates</text>
</g>
<!-- FindOutboxSMS&#45;&gt;check duplicates -->
<g id="edge7" class="edge">
<title>FindOutboxSMS&#45;&gt;check duplicates</title>
<path fill="none" stroke="black" d="M255.46,-553.53C269.51,-543.94 287.4,-531.73 302.7,-521.29"/>
<polygon fill="black" stroke="black" points="305.06,-523.91 311.35,-515.38 301.12,-518.13 305.06,-523.91"/>
</g>
<!-- MoveSMS(force, ERR) -->
<g id="node14" class="node">
<title>MoveSMS(force, ERR)</title>
<ellipse fill="none" stroke="black" cx="396.34" cy="-91" rx="114.28" ry="18"/>
<text text-anchor="middle" x="396.34" y="-87.3" font-family="Times,serif" font-size="14.00">MoveSMS(force, ERR)</text>
</g>
<!-- AddSentSMSInfo(ERROR)&#45;&gt;MoveSMS(force, ERR) -->
<g id="edge18" class="edge">
<title>AddSentSMSInfo(ERROR)&#45;&gt;MoveSMS(force, ERR)</title>
<path fill="none" stroke="black" d="M329.51,-232.79C342.58,-205.25 368.3,-151.06 383.74,-118.53"/>
<polygon fill="black" stroke="black" points="387.05,-119.72 388.18,-109.19 380.73,-116.72 387.05,-119.72"/>
</g>
<!-- check duplicates&#45;&gt;AddSentSMSInfo(ERROR) -->
<g id="edge8" class="edge">
<title>check duplicates&#45;&gt;AddSentSMSInfo(ERROR)</title>
<path fill="none" stroke="black" stroke-dasharray="1,5" d="M324.33,-479.91C311.78,-459.31 292.01,-423.19 284.34,-389 275.61,-350.08 292.72,-305.59 306.48,-278.14"/>
<polygon fill="black" stroke="black" points="309.63,-279.67 311.16,-269.18 303.43,-276.43 309.63,-279.67"/>
<text text-anchor="middle" x="344.84" y="-377.8" font-family="Times,serif" font-size="14.00">Too many retries</text>
</g>
<!-- GSM_SendSMS -->
<g id="node10" class="node">
<title>GSM_SendSMS</title>
<ellipse fill="none" stroke="black" cx="423.34" cy="-425" rx="83.39" ry="18"/>
<text text-anchor="middle" x="423.34" y="-421.3" font-family="Times,serif" font-size="14.00">GSM_SendSMS</text>
</g>
<!-- check duplicates&#45;&gt;GSM_SendSMS -->
<g id="edge9" class="edge">
<title>check duplicates&#45;&gt;GSM_SendSMS</title>
<path fill="none" stroke="black" d="M356.19,-480.17C367.79,-470.82 382.37,-459.05 394.99,-448.88"/>
<polygon fill="black" stroke="black" points="397.35,-451.46 402.94,-442.46 392.96,-446.02 397.35,-451.46"/>
</g>
<!-- GSM_SendSMS&#45;&gt;AddSentSMSInfo(ERROR) -->
<g id="edge11" class="edge">
<title>GSM_SendSMS&#45;&gt;AddSentSMSInfo(ERROR)</title>
<path fill="none" stroke="black" stroke-dasharray="1,5" d="M420.1,-406.8C417.85,-396.9 414.35,-384.4 409.34,-374 391.7,-337.38 362.98,-300.19 343.17,-276.66"/>
<polygon fill="black" stroke="black" points="345.73,-274.26 336.57,-268.93 340.4,-278.81 345.73,-274.26"/>
<text text-anchor="middle" x="419.34" y="-334.3" font-family="Times,serif" font-size="14.00">Error</text>
</g>
<!-- RefreshSendStatus -->
<g id="node11" class="node">
<title>RefreshSendStatus</title>
<ellipse fill="none" stroke="black" cx="582.34" cy="-338" rx="100.98" ry="18"/>
<text text-anchor="middle" x="582.34" y="-334.3" font-family="Times,serif" font-size="14.00">RefreshSendStatus</text>
</g>
<!-- GSM_SendSMS&#45;&gt;RefreshSendStatus -->
<g id="edge10" class="edge">
<title>GSM_SendSMS&#45;&gt;RefreshSendStatus</title>
<path fill="none" stroke="black" d="M453.25,-408.01C478.62,-394.45 515.23,-374.88 542.98,-360.04"/>
<polygon fill="black" stroke="black" points="544.86,-363.01 552.03,-355.21 541.56,-356.83 544.86,-363.01"/>
</g>
<!-- RefreshSendStatus&#45;&gt;AddSentSMSInfo(ERROR) -->
<g id="edge13" class="edge">
<title>RefreshSendStatus&#45;&gt;AddSentSMSInfo(ERROR)</title>
<path fill="none" stroke="black" stroke-dasharray="1,5" d="M539.34,-321.68C510.57,-311.55 471.8,-298.14 437.34,-287 420.19,-281.46 401.52,-275.7 384.28,-270.5"/>
<polygon fill="black" stroke="black" points="384.9,-267.03 374.31,-267.51 382.88,-273.74 384.9,-267.03"/>
<text text-anchor="middle" x="510.84" y="-290.8" font-family="Times,serif" font-size="14.00">Timeout</text>
</g>
<!-- RefreshSendStatus&#45;&gt;RefreshSendStatus -->
<g id="edge12" class="edge">
<title>RefreshSendStatus&#45;&gt;RefreshSendStatus</title>
<path fill="none" stroke="black" d="M674.45,-345.35C690.18,-344.35 701.08,-341.9 701.08,-338 701.08,-335.02 694.69,-332.88 684.63,-331.59"/>
<polygon fill="black" stroke="black" points="684.73,-328.09 674.45,-330.65 684.08,-335.06 684.73,-328.09"/>
<text text-anchor="middle" x="730.58" y="-334.3" font-family="Times,serif" font-size="14.00">Sending</text>
</g>
<!-- AddSentSMSInfo(OK) -->
<g id="node12" class="node">
<title>AddSentSMSInfo(OK)</title>
<ellipse fill="none" stroke="black" cx="582.34" cy="-251" rx="111.28" ry="18"/>
<text text-anchor="middle" x="582.34" y="-247.3" font-family="Times,serif" font-size="14.00">AddSentSMSInfo(OK)</text>
</g>
<!-- RefreshSendStatus&#45;&gt;AddSentSMSInfo(OK) -->
<g id="edge14" class="edge">
<title>RefreshSendStatus&#45;&gt;AddSentSMSInfo(OK)</title>
<path fill="none" stroke="black" d="M582.34,-319.8C582.34,-308.16 582.34,-292.55 582.34,-279.24"/>
<polygon fill="black" stroke="black" points="585.84,-279.18 582.34,-269.18 578.84,-279.18 585.84,-279.18"/>
</g>
<!-- MoveSMS(noforce, OK) -->
<g id="node13" class="node">
<title>MoveSMS(noforce, OK)</title>
<ellipse fill="none" stroke="black" cx="582.34" cy="-178" rx="119.68" ry="18"/>
<text text-anchor="middle" x="582.34" y="-174.3" font-family="Times,serif" font-size="14.00">MoveSMS(noforce, OK)</text>
</g>
<!-- AddSentSMSInfo(OK)&#45;&gt;MoveSMS(noforce, OK) -->
<g id="edge15" class="edge">
<title>AddSentSMSInfo(OK)&#45;&gt;MoveSMS(noforce, OK)</title>
<path fill="none" stroke="black" d="M582.34,-232.81C582.34,-224.79 582.34,-215.05 582.34,-206.07"/>
<polygon fill="black" stroke="black" points="585.84,-206.03 582.34,-196.03 578.84,-206.03 585.84,-206.03"/>
</g>
<!-- AddSentSMSInfo(OK)&#45;&gt;MoveSMS(force, ERR) -->
<g id="edge17" class="edge">
<title>AddSentSMSInfo(OK)&#45;&gt;MoveSMS(force, ERR)</title>
<path fill="none" stroke="black" stroke-dasharray="1,5" d="M492.97,-240.26C463.65,-232.66 433.46,-219.32 413.34,-196 395.29,-175.07 392.62,-142.63 393.47,-119.54"/>
<polygon fill="black" stroke="black" points="396.97,-119.56 394.09,-109.37 389.99,-119.13 396.97,-119.56"/>
<text text-anchor="middle" x="433.34" y="-174.3" font-family="Times,serif" font-size="14.00">Error</text>
</g>
<!-- MoveSMS(noforce, OK)&#45;&gt;message sent -->
<g id="edge19" class="edge">
<title>MoveSMS(noforce, OK)&#45;&gt;message sent</title>
<path fill="none" stroke="black" d="M582.95,-159.8C583.36,-148.16 583.91,-132.55 584.38,-119.24"/>
<polygon fill="black" stroke="black" points="587.88,-119.29 584.73,-109.18 580.88,-119.05 587.88,-119.29"/>
</g>
<!-- MoveSMS(noforce, OK)&#45;&gt;MoveSMS(force, ERR) -->
<g id="edge16" class="edge">
<title>MoveSMS(noforce, OK)&#45;&gt;MoveSMS(force, ERR)</title>
<path fill="none" stroke="black" stroke-dasharray="1,5" d="M546.48,-160.61C516.4,-146.87 473.32,-127.18 441.01,-112.41"/>
<polygon fill="black" stroke="black" points="442.33,-109.17 431.78,-108.19 439.42,-115.53 442.33,-109.17"/>
<text text-anchor="middle" x="520.34" y="-130.8" font-family="Times,serif" font-size="14.00">Error</text>
</g>
<!-- MoveSMS(force, ERR)&#45;&gt;error sending message -->
<g id="edge20" class="edge">
<title>MoveSMS(force, ERR)&#45;&gt;error sending message</title>
<path fill="none" stroke="black" d="M396.34,-72.81C396.34,-64.79 396.34,-55.05 396.34,-46.07"/>
<polygon fill="black" stroke="black" points="399.84,-46.03 396.34,-36.03 392.84,-46.03 399.84,-46.03"/>
</g>
</g>
</svg>
