<?xml version="1.0" encoding="UTF-8" standalone="no"?>
<!DOCTYPE svg PUBLIC "-//W3C//DTD SVG 1.1//EN"
 "http://www.w3.org/Graphics/SVG/1.1/DTD/svg11.dtd">
<!-- Generated by graphviz version 2.43.0 (0)
 -->
<!-- Title: smsloop Pages: 1 -->
<svg width="408pt" height="802pt"
 viewBox="0.00 0.00 408.31 802.00" xmlns="http://www.w3.org/2000/svg" xmlns:xlink="http://www.w3.org/1999/xlink">
<g id="graph0" class="graph" transform="scale(1 1) rotate(0) translate(4 798)">
<title>smsloop</title>
<polygon fill="white" stroke="transparent" points="-4,4 -4,-798 404.31,-798 404.31,4 -4,4"/>
<!-- start -->
<g id="node1" class="node">
<title>start</title>
<path fill="none" stroke="black" d="M243.79,-794C243.79,-794 196.79,-794 196.79,-794 190.79,-794 184.79,-788 184.79,-782 184.79,-782 184.79,-770 184.79,-770 184.79,-764 190.79,-758 196.79,-758 196.79,-758 243.79,-758 243.79,-758 249.79,-758 255.79,-764 255.79,-770 255.79,-770 255.79,-782 255.79,-782 255.79,-788 249.79,-794 243.79,-794"/>
<text text-anchor="middle" x="220.29" y="-772.3" font-family="Times,serif" font-size="14.00">Startup</text>
</g>
<!-- connected -->
<g id="node3" class="node">
<title>connected</title>
<polygon fill="none" stroke="black" points="220.29,-721 85.9,-703 220.29,-685 354.69,-703 220.29,-721"/>
<text text-anchor="middle" x="220.29" y="-699.3" font-family="Times,serif" font-size="14.00">Phone connected?</text>
</g>
<!-- start&#45;&gt;connected -->
<g id="edge1" class="edge">
<title>start&#45;&gt;connected</title>
<path fill="none" stroke="black" d="M220.29,-757.81C220.29,-749.79 220.29,-740.05 220.29,-731.07"/>
<polygon fill="black" stroke="black" points="223.79,-731.03 220.29,-721.03 216.79,-731.03 223.79,-731.03"/>
</g>
<!-- end -->
<g id="node2" class="node">
<title>end</title>
<path fill="none" stroke="black" d="M280.79,-36C280.79,-36 201.79,-36 201.79,-36 195.79,-36 189.79,-30 189.79,-24 189.79,-24 189.79,-12 189.79,-12 189.79,-6 195.79,0 201.79,0 201.79,0 280.79,0 280.79,0 286.79,0 292.79,-6 292.79,-12 292.79,-12 292.79,-24 292.79,-24 292.79,-30 286.79,-36 280.79,-36"/>
<text text-anchor="middle" x="241.29" y="-14.3" font-family="Times,serif" font-size="14.00">Termination</text>
</g>
<!-- connect -->
<g id="node4" class="node">
<title>connect</title>
<ellipse fill="none" stroke="black" cx="92.29" cy="-616" rx="92.08" ry="18"/>
<text text-anchor="middle" x="92.29" y="-612.3" font-family="Times,serif" font-size="14.00">Connect to phone</text>
</g>
<!-- connected&#45;&gt;connect -->
<g id="edge2" class="edge">
<title>connected&#45;&gt;connect</title>
<path fill="none" stroke="black" d="M198.87,-687.77C178.93,-674.53 148.89,-654.59 125.78,-639.24"/>
<polygon fill="black" stroke="black" points="127.57,-636.22 117.3,-633.61 123.7,-642.06 127.57,-636.22"/>
<text text-anchor="middle" x="174.79" y="-655.8" font-family="Times,serif" font-size="14.00">No</text>
</g>
<!-- security -->
<g id="node5" class="node">
<title>security</title>
<ellipse fill="none" stroke="black" cx="123.29" cy="-543" rx="120.48" ry="18"/>
<text text-anchor="middle" x="123.29" y="-539.3" font-family="Times,serif" font-size="14.00">Check for security code</text>
</g>
<!-- connected&#45;&gt;security -->
<g id="edge3" class="edge">
<title>connected&#45;&gt;security</title>
<path fill="none" stroke="black" d="M219.23,-684.78C217.16,-662.95 211.08,-624.93 193.29,-598 185.12,-585.63 173.16,-574.91 161.42,-566.36"/>
<polygon fill="black" stroke="black" points="163.19,-563.33 152.97,-560.52 159.21,-569.08 163.19,-563.33"/>
<text text-anchor="middle" x="221.79" y="-612.3" font-family="Times,serif" font-size="14.00">Yes</text>
</g>
<!-- connect&#45;&gt;security -->
<g id="edge4" class="edge">
<title>connect&#45;&gt;security</title>
<path fill="none" stroke="black" d="M99.8,-597.81C103.38,-589.62 107.74,-579.62 111.73,-570.48"/>
<polygon fill="black" stroke="black" points="115.06,-571.59 115.86,-561.03 108.65,-568.79 115.06,-571.59"/>
</g>
<!-- receive -->
<g id="node6" class="node">
<title>receive</title>
<ellipse fill="none" stroke="black" cx="123.29" cy="-470" rx="94.78" ry="18"/>
<text text-anchor="middle" x="123.29" y="-466.3" font-family="Times,serif" font-size="14.00">Receive messages</text>
</g>
<!-- security&#45;&gt;receive -->
<g id="edge5" class="edge">
<title>security&#45;&gt;receive</title>
<path fill="none" stroke="black" d="M123.29,-524.81C123.29,-516.79 123.29,-507.05 123.29,-498.07"/>
<polygon fill="black" stroke="black" points="126.79,-498.03 123.29,-488.03 119.79,-498.03 126.79,-498.03"/>
</g>
<!-- reset -->
<g id="node7" class="node">
<title>reset</title>
<ellipse fill="none" stroke="black" cx="123.29" cy="-397" rx="114.28" ry="18"/>
<text text-anchor="middle" x="123.29" y="-393.3" font-family="Times,serif" font-size="14.00">Reset phone if needed</text>
</g>
<!-- receive&#45;&gt;reset -->
<g id="edge6" class="edge">
<title>receive&#45;&gt;reset</title>
<path fill="none" stroke="black" d="M123.29,-451.81C123.29,-443.79 123.29,-434.05 123.29,-425.07"/>
<polygon fill="black" stroke="black" points="126.79,-425.03 123.29,-415.03 119.79,-425.03 126.79,-425.03"/>
</g>
<!-- send -->
<g id="node8" class="node">
<title>send</title>
<ellipse fill="none" stroke="black" cx="135.29" cy="-324" rx="82.59" ry="18"/>
<text text-anchor="middle" x="135.29" y="-320.3" font-family="Times,serif" font-size="14.00">Send messages</text>
</g>
<!-- reset&#45;&gt;send -->
<g id="edge7" class="edge">
<title>reset&#45;&gt;send</title>
<path fill="none" stroke="black" d="M126.2,-378.81C127.55,-370.79 129.2,-361.05 130.72,-352.07"/>
<polygon fill="black" stroke="black" points="134.2,-352.47 132.41,-342.03 127.3,-351.31 134.2,-352.47"/>
</g>
<!-- status -->
<g id="node9" class="node">
<title>status</title>
<ellipse fill="none" stroke="black" cx="142.29" cy="-251" rx="102.08" ry="18"/>
<text text-anchor="middle" x="142.29" y="-247.3" font-family="Times,serif" font-size="14.00">Check phone status</text>
</g>
<!-- send&#45;&gt;status -->
<g id="edge8" class="edge">
<title>send&#45;&gt;status</title>
<path fill="none" stroke="black" d="M136.99,-305.81C137.78,-297.79 138.74,-288.05 139.62,-279.07"/>
<polygon fill="black" stroke="black" points="143.11,-279.32 140.61,-269.03 136.15,-278.64 143.11,-279.32"/>
</g>
<!-- sleep -->
<g id="node10" class="node">
<title>sleep</title>
<ellipse fill="none" stroke="black" cx="193.29" cy="-178" rx="36.29" ry="18"/>
<text text-anchor="middle" x="193.29" y="-174.3" font-family="Times,serif" font-size="14.00">Sleep</text>
</g>
<!-- status&#45;&gt;sleep -->
<g id="edge9" class="edge">
<title>status&#45;&gt;sleep</title>
<path fill="none" stroke="black" d="M154.64,-232.81C160.87,-224.14 168.54,-213.46 175.4,-203.91"/>
<polygon fill="black" stroke="black" points="178.42,-205.7 181.41,-195.54 172.73,-201.62 178.42,-205.7"/>
</g>
<!-- shutdown -->
<g id="node11" class="node">
<title>shutdown</title>
<polygon fill="none" stroke="black" points="241.29,-123 82.26,-105 241.29,-87 400.32,-105 241.29,-123"/>
<text text-anchor="middle" x="241.29" y="-101.3" font-family="Times,serif" font-size="14.00">Shutdown requested?</text>
</g>
<!-- sleep&#45;&gt;shutdown -->
<g id="edge10" class="edge">
<title>sleep&#45;&gt;shutdown</title>
<path fill="none" stroke="black" d="M204.42,-160.53C210.51,-151.53 218.16,-140.22 224.91,-130.23"/>
<polygon fill="black" stroke="black" points="227.85,-132.13 230.55,-121.89 222.05,-128.21 227.85,-132.13"/>
</g>
<!-- shutdown&#45;&gt;end -->
<g id="edge12" class="edge">
<title>shutdown&#45;&gt;end</title>
<path fill="none" stroke="black" d="M241.29,-86.8C241.29,-75.16 241.29,-59.55 241.29,-46.24"/>
<polygon fill="black" stroke="black" points="244.79,-46.18 241.29,-36.18 237.79,-46.18 244.79,-46.18"/>
<text text-anchor="middle" x="253.79" y="-57.8" font-family="Times,serif" font-size="14.00">Yes</text>
</g>
<!-- shutdown&#45;&gt;connected -->
<g id="edge11" class="edge">
<title>shutdown&#45;&gt;connected</title>
<path fill="none" stroke="black" d="M253.03,-121.73C262.16,-135.55 273.29,-156.58 273.29,-177 273.29,-617 273.29,-617 273.29,-617 273.29,-640.84 258.09,-663.53 243.97,-679.45"/>
<polygon fill="black" stroke="black" points="241.05,-677.45 236.77,-687.14 246.16,-682.23 241.05,-677.45"/>
<text text-anchor="middle" x="283.79" y="-393.3" font-family="Times,serif" font-size="14.00">No</text>
</g>
</g>
</svg>
