<?xml version="1.0" encoding="UTF-8" standalone="no"?>
<!DOCTYPE svg PUBLIC "-//W3C//DTD SVG 1.1//EN"
 "http://www.w3.org/Graphics/SVG/1.1/DTD/svg11.dtd">
<!-- Generated by graphviz version 2.43.0 (0)
 -->
<!-- Title: smsdinteractions Pages: 1 -->
<svg width="509pt" height="377pt"
 viewBox="0.00 0.00 508.50 377.41" xmlns="http://www.w3.org/2000/svg" xmlns:xlink="http://www.w3.org/1999/xlink">
<g id="graph0" class="graph" transform="scale(1 1) rotate(0) translate(4 373.41)">
<title>smsdinteractions</title>
<polygon fill="white" stroke="transparent" points="-4,4 -4,-373.41 504.5,-373.41 504.5,4 -4,4"/>
<!-- gammu&#45;smsd&#45;inject -->
<g id="node1" class="node">
<title>gammu&#45;smsd&#45;inject</title>
<polygon fill="none" stroke="black" points="455.5,-369.41 299.5,-369.41 299.5,-333.41 455.5,-333.41 455.5,-369.41"/>
<text text-anchor="middle" x="377.5" y="-347.71" font-family="Times,serif" font-size="14.00">gammu&#45;smsd&#45;inject</text>
</g>
<!-- Service\nstorage -->
<g id="node6" class="node">
<title>Service\nstorage</title>
<ellipse fill="none" stroke="black" cx="377.5" cy="-228.2" rx="50.39" ry="50.39"/>
<ellipse fill="none" stroke="black" cx="377.5" cy="-228.2" rx="54.41" ry="54.41"/>
<text text-anchor="middle" x="377.5" y="-232" font-family="Times,serif" font-size="14.00">Service</text>
<text text-anchor="middle" x="377.5" y="-217" font-family="Times,serif" font-size="14.00">storage</text>
</g>
<!-- gammu&#45;smsd&#45;inject&#45;&gt;Service\nstorage -->
<g id="edge9" class="edge">
<title>gammu&#45;smsd&#45;inject&#45;&gt;Service\nstorage</title>
<path fill="none" stroke="black" d="M377.5,-333.3C377.5,-322.48 377.5,-307.76 377.5,-292.8"/>
<polygon fill="black" stroke="black" points="381,-292.44 377.5,-282.44 374,-292.44 381,-292.44"/>
<text text-anchor="middle" x="398" y="-304.21" font-family="Times,serif" font-size="14.00">Inject</text>
</g>
<!-- gammu&#45;smsd -->
<g id="node2" class="node">
<title>gammu&#45;smsd</title>
<polygon fill="none" stroke="black" points="284.5,-123 172.5,-123 172.5,-87 284.5,-87 284.5,-123"/>
<text text-anchor="middle" x="228.5" y="-101.3" font-family="Times,serif" font-size="14.00">gammu&#45;smsd</text>
</g>
<!-- Run on receive -->
<g id="node3" class="node">
<title>Run on receive</title>
<polygon fill="none" stroke="black" stroke-dasharray="1,5" points="445,-36 322,-36 322,0 445,0 445,-36"/>
<text text-anchor="middle" x="383.5" y="-14.3" font-family="Times,serif" font-size="14.00">Run on receive</text>
</g>
<!-- gammu&#45;smsd&#45;&gt;Run on receive -->
<g id="edge5" class="edge">
<title>gammu&#45;smsd&#45;&gt;Run on receive</title>
<path fill="none" stroke="black" d="M254.88,-86.93C263.67,-81.23 273.51,-74.85 282.5,-69 292.73,-62.35 294.79,-59.85 305.5,-54 314.2,-49.25 323.66,-44.6 332.9,-40.32"/>
<polygon fill="black" stroke="black" points="334.37,-43.49 342.03,-36.17 331.48,-37.12 334.37,-43.49"/>
<text text-anchor="middle" x="334.5" y="-57.8" font-family="Times,serif" font-size="14.00">Execute</text>
</g>
<!-- GSM modem -->
<g id="node4" class="node">
<title>GSM modem</title>
<polygon fill="none" stroke="black" stroke-dasharray="5,2" points="109,-36 0,-36 0,0 109,0 109,-36"/>
<text text-anchor="middle" x="54.5" y="-14.3" font-family="Times,serif" font-size="14.00">GSM modem</text>
</g>
<!-- gammu&#45;smsd&#45;&gt;GSM modem -->
<g id="edge1" class="edge">
<title>gammu&#45;smsd&#45;&gt;GSM modem</title>
<path fill="none" stroke="black" d="M172.22,-100.98C124.22,-97.09 60.52,-88.35 44.5,-69 39.12,-62.5 39.13,-53.92 41.26,-45.7"/>
<polygon fill="black" stroke="black" points="44.65,-46.61 44.7,-36.02 38.06,-44.27 44.65,-46.61"/>
<text text-anchor="middle" x="78" y="-57.8" font-family="Times,serif" font-size="14.00">Outgoing</text>
</g>
<!-- gammu&#45;smsd&#45;monitor -->
<g id="node5" class="node">
<title>gammu&#45;smsd&#45;monitor</title>
<polygon fill="none" stroke="black" points="304,-36 131,-36 131,0 304,0 304,-36"/>
<text text-anchor="middle" x="217.5" y="-14.3" font-family="Times,serif" font-size="14.00">gammu&#45;smsd&#45;monitor</text>
</g>
<!-- gammu&#45;smsd&#45;&gt;gammu&#45;smsd&#45;monitor -->
<g id="edge10" class="edge">
<title>gammu&#45;smsd&#45;&gt;gammu&#45;smsd&#45;monitor</title>
<path fill="none" stroke="black" d="M226.27,-86.8C224.77,-75.16 222.75,-59.55 221.02,-46.24"/>
<polygon fill="black" stroke="black" points="224.48,-45.64 219.72,-36.18 217.54,-46.54 224.48,-45.64"/>
<text text-anchor="middle" x="253.5" y="-57.8" font-family="Times,serif" font-size="14.00">Monitor</text>
</g>
<!-- gammu&#45;smsd&#45;&gt;Service\nstorage -->
<g id="edge3" class="edge">
<title>gammu&#45;smsd&#45;&gt;Service\nstorage</title>
<path fill="none" stroke="black" d="M252.14,-123.17C259.68,-128.76 268.01,-135.05 275.5,-141 293.14,-155 312.07,-170.78 328.78,-184.98"/>
<polygon fill="black" stroke="black" points="326.91,-187.98 336.79,-191.81 331.45,-182.66 326.91,-187.98"/>
<text text-anchor="middle" x="310" y="-144.8" font-family="Times,serif" font-size="14.00">Save</text>
</g>
<!-- GSM modem&#45;&gt;gammu&#45;smsd -->
<g id="edge2" class="edge">
<title>GSM modem&#45;&gt;gammu&#45;smsd</title>
<path fill="none" stroke="black" d="M86.63,-36.07C105.43,-45.92 129.68,-58.42 151.5,-69 160.91,-73.56 171.05,-78.3 180.78,-82.75"/>
<polygon fill="black" stroke="black" points="179.39,-85.97 189.94,-86.92 182.29,-79.59 179.39,-85.97"/>
<text text-anchor="middle" x="185" y="-57.8" font-family="Times,serif" font-size="14.00">Incoming</text>
</g>
<!-- Service\nstorage&#45;&gt;gammu&#45;smsd -->
<g id="edge4" class="edge">
<title>Service\nstorage&#45;&gt;gammu&#45;smsd</title>
<path fill="none" stroke="black" d="M324.91,-214.57C293.52,-204.19 255.76,-186.15 234.5,-156 229.88,-149.44 227.8,-141.16 227.03,-133.23"/>
<polygon fill="black" stroke="black" points="230.53,-133.06 226.68,-123.19 223.53,-133.31 230.53,-133.06"/>
<text text-anchor="middle" x="253" y="-144.8" font-family="Times,serif" font-size="14.00">Read</text>
</g>
<!-- Service\nstorage&#45;&gt;Run on receive -->
<g id="edge6" class="edge">
<title>Service\nstorage&#45;&gt;Run on receive</title>
<path fill="none" stroke="black" d="M379.04,-173.86C380.21,-133.16 381.78,-78.75 382.71,-46.44"/>
<polygon fill="black" stroke="black" points="386.21,-46.48 383,-36.38 379.21,-46.28 386.21,-46.48"/>
<text text-anchor="middle" x="399" y="-101.3" font-family="Times,serif" font-size="14.00">Read</text>
</g>
<!-- Kalkun -->
<g id="node7" class="node">
<title>Kalkun</title>
<polygon fill="none" stroke="black" stroke-dasharray="1,5" points="500.5,-123 434.5,-123 434.5,-87 500.5,-87 500.5,-123"/>
<text text-anchor="middle" x="467.5" y="-101.3" font-family="Times,serif" font-size="14.00">Kalkun</text>
</g>
<!-- Service\nstorage&#45;&gt;Kalkun -->
<g id="edge8" class="edge">
<title>Service\nstorage&#45;&gt;Kalkun</title>
<path fill="none" stroke="black" d="M389.12,-174.87C393.49,-162.88 399.44,-150.79 407.5,-141 412.57,-134.85 419.02,-129.54 425.8,-125.05"/>
<polygon fill="black" stroke="black" points="427.74,-127.96 434.48,-119.8 424.12,-121.97 427.74,-127.96"/>
<text text-anchor="middle" x="426" y="-144.8" font-family="Times,serif" font-size="14.00">Read</text>
</g>
<!-- Kalkun&#45;&gt;Service\nstorage -->
<g id="edge7" class="edge">
<title>Kalkun&#45;&gt;Service\nstorage</title>
<path fill="none" stroke="black" d="M462.98,-123.04C459.85,-133.12 455.05,-145.86 448.5,-156 441.99,-166.08 433.85,-175.88 425.44,-184.83"/>
<polygon fill="black" stroke="black" points="422.8,-182.52 418.33,-192.13 427.81,-187.41 422.8,-182.52"/>
<text text-anchor="middle" x="476" y="-144.8" font-family="Times,serif" font-size="14.00">Inject</text>
</g>
</g>
</svg>
