<?xml version="1.0" encoding="UTF-8" standalone="no"?>
<!DOCTYPE svg PUBLIC "-//W3C//DTD SVG 1.1//EN"
 "http://www.w3.org/Graphics/SVG/1.1/DTD/svg11.dtd">
<!-- Generated by graphviz version 2.43.0 (0)
 -->
<!-- Title: smsdreceiving Pages: 1 -->
<svg width="601pt" height="698pt"
 viewBox="0.00 0.00 601.00 698.00" xmlns="http://www.w3.org/2000/svg" xmlns:xlink="http://www.w3.org/1999/xlink">
<g id="graph0" class="graph" transform="scale(1 1) rotate(0) translate(4 694)">
<title>smsdreceiving</title>
<polygon fill="white" stroke="transparent" points="-4,4 -4,-694 597,-694 597,4 -4,4"/>
<!-- received message -->
<g id="node1" class="node">
<title>received message</title>
<polygon fill="none" stroke="black" points="181,-690 37,-690 37,-654 181,-654 181,-690"/>
<text text-anchor="middle" x="109" y="-668.3" font-family="Times,serif" font-size="14.00">received message</text>
</g>
<!-- GSM_GetNextSMS -->
<g id="node6" class="node">
<title>GSM_GetNextSMS</title>
<ellipse fill="none" stroke="black" cx="109" cy="-599" rx="98.58" ry="18"/>
<text text-anchor="middle" x="109" y="-595.3" font-family="Times,serif" font-size="14.00">GSM_GetNextSMS</text>
</g>
<!-- received message&#45;&gt;GSM_GetNextSMS -->
<g id="edge1" class="edge">
<title>received message&#45;&gt;GSM_GetNextSMS</title>
<path fill="none" stroke="black" d="M109,-653.81C109,-645.79 109,-636.05 109,-627.07"/>
<polygon fill="black" stroke="black" points="112.5,-627.03 109,-617.03 105.5,-627.03 112.5,-627.03"/>
</g>
<!-- ignored message -->
<g id="node2" class="node">
<title>ignored message</title>
<polygon fill="none" stroke="black" points="138,-457 0,-457 0,-421 138,-421 138,-457"/>
<text text-anchor="middle" x="69" y="-435.3" font-family="Times,serif" font-size="14.00">ignored message</text>
</g>
<!-- failed message -->
<g id="node3" class="node">
<title>failed message</title>
<polygon fill="none" stroke="black" points="369.5,-36 246.5,-36 246.5,0 369.5,0 369.5,-36"/>
<text text-anchor="middle" x="308" y="-14.3" font-family="Times,serif" font-size="14.00">failed message</text>
</g>
<!-- waiting message -->
<g id="node4" class="node">
<title>waiting message</title>
<polygon fill="none" stroke="black" points="251.5,-297 114.5,-297 114.5,-261 251.5,-261 251.5,-297"/>
<text text-anchor="middle" x="183" y="-275.3" font-family="Times,serif" font-size="14.00">waiting message</text>
</g>
<!-- processed message -->
<g id="node5" class="node">
<title>processed message</title>
<polygon fill="none" stroke="black" points="542.5,-36 387.5,-36 387.5,0 542.5,0 542.5,-36"/>
<text text-anchor="middle" x="465" y="-14.3" font-family="Times,serif" font-size="14.00">processed message</text>
</g>
<!-- SMSD_ValidMessage -->
<g id="node7" class="node">
<title>SMSD_ValidMessage</title>
<ellipse fill="none" stroke="black" cx="109" cy="-526" rx="108.58" ry="18"/>
<text text-anchor="middle" x="109" y="-522.3" font-family="Times,serif" font-size="14.00">SMSD_ValidMessage</text>
</g>
<!-- GSM_GetNextSMS&#45;&gt;SMSD_ValidMessage -->
<g id="edge2" class="edge">
<title>GSM_GetNextSMS&#45;&gt;SMSD_ValidMessage</title>
<path fill="none" stroke="black" d="M109,-580.81C109,-572.79 109,-563.05 109,-554.07"/>
<polygon fill="black" stroke="black" points="112.5,-554.03 109,-544.03 105.5,-554.03 112.5,-554.03"/>
</g>
<!-- SMSD_ValidMessage&#45;&gt;ignored message -->
<g id="edge4" class="edge">
<title>SMSD_ValidMessage&#45;&gt;ignored message</title>
<path fill="none" stroke="black" stroke-dasharray="1,5" d="M100.91,-507.8C95.32,-495.93 87.79,-479.93 81.45,-466.45"/>
<polygon fill="black" stroke="black" points="84.51,-464.73 77.08,-457.18 78.17,-467.71 84.51,-464.73"/>
<text text-anchor="middle" x="125" y="-478.8" font-family="Times,serif" font-size="14.00">Not valid</text>
</g>
<!-- GSM_LinkSMS -->
<g id="node8" class="node">
<title>GSM_LinkSMS</title>
<ellipse fill="none" stroke="black" cx="236" cy="-439" rx="79.89" ry="18"/>
<text text-anchor="middle" x="236" y="-435.3" font-family="Times,serif" font-size="14.00">GSM_LinkSMS</text>
</g>
<!-- SMSD_ValidMessage&#45;&gt;GSM_LinkSMS -->
<g id="edge3" class="edge">
<title>SMSD_ValidMessage&#45;&gt;GSM_LinkSMS</title>
<path fill="none" stroke="black" d="M134.38,-508.32C143.14,-502.54 153.01,-496 162,-490 175.62,-480.9 190.6,-470.8 203.49,-462.07"/>
<polygon fill="black" stroke="black" points="205.73,-464.78 212.05,-456.28 201.81,-458.99 205.73,-464.78"/>
</g>
<!-- SMSD_CheckMultipart -->
<g id="node9" class="node">
<title>SMSD_CheckMultipart</title>
<ellipse fill="none" stroke="black" cx="236" cy="-366" rx="116.98" ry="18"/>
<text text-anchor="middle" x="236" y="-362.3" font-family="Times,serif" font-size="14.00">SMSD_CheckMultipart</text>
</g>
<!-- GSM_LinkSMS&#45;&gt;SMSD_CheckMultipart -->
<g id="edge5" class="edge">
<title>GSM_LinkSMS&#45;&gt;SMSD_CheckMultipart</title>
<path fill="none" stroke="black" d="M236,-420.81C236,-412.79 236,-403.05 236,-394.07"/>
<polygon fill="black" stroke="black" points="239.5,-394.03 236,-384.03 232.5,-394.03 239.5,-394.03"/>
</g>
<!-- SMSD_CheckMultipart&#45;&gt;waiting message -->
<g id="edge7" class="edge">
<title>SMSD_CheckMultipart&#45;&gt;waiting message</title>
<path fill="none" stroke="black" stroke-dasharray="1,5" d="M225.27,-347.8C217.73,-335.7 207.51,-319.3 199,-305.67"/>
<polygon fill="black" stroke="black" points="201.97,-303.81 193.71,-297.18 196.03,-307.51 201.97,-303.81"/>
<text text-anchor="middle" x="258.5" y="-318.8" font-family="Times,serif" font-size="14.00">Not all parts</text>
</g>
<!-- SaveInboxSMS -->
<g id="node10" class="node">
<title>SaveInboxSMS</title>
<ellipse fill="none" stroke="black" cx="351" cy="-279" rx="81.49" ry="18"/>
<text text-anchor="middle" x="351" y="-275.3" font-family="Times,serif" font-size="14.00">SaveInboxSMS</text>
</g>
<!-- SMSD_CheckMultipart&#45;&gt;SaveInboxSMS -->
<g id="edge6" class="edge">
<title>SMSD_CheckMultipart&#45;&gt;SaveInboxSMS</title>
<path fill="none" stroke="black" d="M274.58,-348.92C285.24,-343.64 296.49,-337.24 306,-330 315.29,-322.92 324.2,-313.74 331.59,-305.18"/>
<polygon fill="black" stroke="black" points="334.48,-307.18 338.19,-297.25 329.1,-302.7 334.48,-307.18"/>
</g>
<!-- SaveInboxSMS&#45;&gt;failed message -->
<g id="edge9" class="edge">
<title>SaveInboxSMS&#45;&gt;failed message</title>
<path fill="none" stroke="black" stroke-dasharray="1,5" d="M343.72,-261.01C338.22,-247.45 330.97,-227.84 327,-210 314.2,-152.57 310.02,-83.5 308.66,-46.17"/>
<polygon fill="black" stroke="black" points="312.15,-45.96 308.33,-36.08 305.16,-46.19 312.15,-45.96"/>
<text text-anchor="middle" x="338" y="-144.8" font-family="Times,serif" font-size="14.00">Error</text>
</g>
<!-- SMSD_RunOnReceive -->
<g id="node11" class="node">
<title>SMSD_RunOnReceive</title>
<ellipse fill="none" stroke="black" cx="448" cy="-192" rx="112.38" ry="18"/>
<text text-anchor="middle" x="448" y="-188.3" font-family="Times,serif" font-size="14.00">SMSD_RunOnReceive</text>
</g>
<!-- SaveInboxSMS&#45;&gt;SMSD_RunOnReceive -->
<g id="edge8" class="edge">
<title>SaveInboxSMS&#45;&gt;SMSD_RunOnReceive</title>
<path fill="none" stroke="black" d="M370.16,-261.21C384.78,-248.4 405.08,-230.61 421.29,-216.4"/>
<polygon fill="black" stroke="black" points="423.66,-218.98 428.88,-209.76 419.05,-213.72 423.66,-218.98"/>
<text text-anchor="middle" x="499.5" y="-231.8" font-family="Times,serif" font-size="14.00">Locations are passed here</text>
</g>
<!-- GSM_DeleteSMS -->
<g id="node12" class="node">
<title>GSM_DeleteSMS</title>
<ellipse fill="none" stroke="black" cx="448" cy="-105" rx="90.18" ry="18"/>
<text text-anchor="middle" x="448" y="-101.3" font-family="Times,serif" font-size="14.00">GSM_DeleteSMS</text>
</g>
<!-- SMSD_RunOnReceive&#45;&gt;GSM_DeleteSMS -->
<g id="edge10" class="edge">
<title>SMSD_RunOnReceive&#45;&gt;GSM_DeleteSMS</title>
<path fill="none" stroke="black" d="M448,-173.8C448,-162.16 448,-146.55 448,-133.24"/>
<polygon fill="black" stroke="black" points="451.5,-133.18 448,-123.18 444.5,-133.18 451.5,-133.18"/>
</g>
<!-- GSM_DeleteSMS&#45;&gt;failed message -->
<g id="edge12" class="edge">
<title>GSM_DeleteSMS&#45;&gt;failed message</title>
<path fill="none" stroke="black" stroke-dasharray="1,5" d="M421.01,-87.61C399.45,-74.52 369,-56.04 345.14,-41.55"/>
<polygon fill="black" stroke="black" points="346.72,-38.41 336.35,-36.21 343.08,-44.4 346.72,-38.41"/>
<text text-anchor="middle" x="407" y="-57.8" font-family="Times,serif" font-size="14.00">Error</text>
</g>
<!-- GSM_DeleteSMS&#45;&gt;processed message -->
<g id="edge11" class="edge">
<title>GSM_DeleteSMS&#45;&gt;processed message</title>
<path fill="none" stroke="black" d="M451.44,-86.8C453.77,-75.16 456.89,-59.55 459.55,-46.24"/>
<polygon fill="black" stroke="black" points="463.04,-46.67 461.56,-36.18 456.17,-45.29 463.04,-46.67"/>
</g>
</g>
</svg>
