<?xml version="1.0" encoding="UTF-8" standalone="no"?>
<!DOCTYPE svg PUBLIC "-//W3C//DTD SVG 1.1//EN"
 "http://www.w3.org/Graphics/SVG/1.1/DTD/svg11.dtd">
<!-- Generated by graphviz version 2.43.0 (0)
 -->
<!-- Title: statemachine Pages: 1 -->
<svg width="572pt" height="802pt"
 viewBox="0.00 0.00 571.82 802.00" xmlns="http://www.w3.org/2000/svg" xmlns:xlink="http://www.w3.org/1999/xlink">
<g id="graph0" class="graph" transform="scale(1 1) rotate(0) translate(4 798)">
<title>statemachine</title>
<polygon fill="white" stroke="transparent" points="-4,4 -4,-798 567.82,-798 567.82,4 -4,4"/>
<!-- GSM_GetModel -->
<g id="node1" class="node">
<title>GSM_GetModel</title>
<ellipse fill="none" stroke="black" cx="409.04" cy="-776" rx="83.39" ry="18"/>
<text text-anchor="middle" x="409.04" y="-772.3" font-family="Times,serif" font-size="14.00">GSM_GetModel</text>
</g>
<!-- Phone.Functions.GetModel -->
<g id="node2" class="node">
<title>Phone.Functions.GetModel</title>
<ellipse fill="none" stroke="black" cx="409.04" cy="-703" rx="136.48" ry="18"/>
<text text-anchor="middle" x="409.04" y="-699.3" font-family="Times,serif" font-size="14.00">Phone.Functions.GetModel</text>
</g>
<!-- GSM_GetModel&#45;&gt;Phone.Functions.GetModel -->
<g id="edge1" class="edge">
<title>GSM_GetModel&#45;&gt;Phone.Functions.GetModel</title>
<path fill="none" stroke="black" d="M403.16,-757.81C402.32,-749.79 402.08,-740.05 402.46,-731.07"/>
<polygon fill="black" stroke="black" points="405.95,-731.25 403.17,-721.03 398.97,-730.75 405.95,-731.25"/>
</g>
<!-- Phone.Functions.GetModel&#45;&gt;GSM_GetModel -->
<g id="edge15" class="edge">
<title>Phone.Functions.GetModel&#45;&gt;GSM_GetModel</title>
<path fill="none" stroke="black" d="M414.9,-721.03C415.74,-729.03 415.99,-738.77 415.62,-747.75"/>
<polygon fill="black" stroke="black" points="412.12,-747.59 414.91,-757.81 419.11,-748.08 412.12,-747.59"/>
</g>
<!-- GSM_WaitFor -->
<g id="node3" class="node">
<title>GSM_WaitFor</title>
<ellipse fill="none" stroke="black" cx="358.04" cy="-630" rx="74.99" ry="18"/>
<text text-anchor="middle" x="358.04" y="-626.3" font-family="Times,serif" font-size="14.00">GSM_WaitFor</text>
</g>
<!-- Phone.Functions.GetModel&#45;&gt;GSM_WaitFor -->
<g id="edge2" class="edge">
<title>Phone.Functions.GetModel&#45;&gt;GSM_WaitFor</title>
<path fill="none" stroke="black" d="M396.69,-684.81C390.55,-676.27 383.01,-665.77 376.22,-656.32"/>
<polygon fill="black" stroke="black" points="378.94,-654.11 370.27,-648.03 373.26,-658.19 378.94,-654.11"/>
</g>
<!-- Protocol.Functions.WriteMessage -->
<g id="node4" class="node">
<title>Protocol.Functions.WriteMessage</title>
<ellipse fill="none" stroke="black" cx="167.04" cy="-557" rx="167.07" ry="18"/>
<text text-anchor="middle" x="167.04" y="-553.3" font-family="Times,serif" font-size="14.00">Protocol.Functions.WriteMessage</text>
</g>
<!-- GSM_WaitFor&#45;&gt;Protocol.Functions.WriteMessage -->
<g id="edge3" class="edge">
<title>GSM_WaitFor&#45;&gt;Protocol.Functions.WriteMessage</title>
<path fill="none" stroke="black" d="M318.92,-614.46C290.54,-603.91 251.79,-589.51 220.54,-577.89"/>
<polygon fill="black" stroke="black" points="221.7,-574.59 211.1,-574.38 219.26,-581.15 221.7,-574.59"/>
</g>
<!-- GSM_WaitForOnce -->
<g id="node5" class="node">
<title>GSM_WaitForOnce</title>
<ellipse fill="none" stroke="black" cx="238.04" cy="-484" rx="98.28" ry="18"/>
<text text-anchor="middle" x="238.04" y="-480.3" font-family="Times,serif" font-size="14.00">GSM_WaitForOnce</text>
</g>
<!-- Protocol.Functions.WriteMessage&#45;&gt;GSM_WaitForOnce -->
<g id="edge4" class="edge">
<title>Protocol.Functions.WriteMessage&#45;&gt;GSM_WaitForOnce</title>
<path fill="none" stroke="black" d="M184.22,-538.81C193.12,-529.92 204.13,-518.91 213.86,-509.17"/>
<polygon fill="black" stroke="black" points="216.41,-511.57 221.01,-502.03 211.46,-506.63 216.41,-511.57"/>
</g>
<!-- GSM_WaitForOnce&#45;&gt;GSM_WaitFor -->
<g id="edge5" class="edge">
<title>GSM_WaitForOnce&#45;&gt;GSM_WaitFor</title>
<path fill="none" stroke="black" d="M287.75,-499.55C307.91,-507.91 329.56,-520.54 343.04,-539 356.13,-556.95 359.38,-582.24 359.64,-601.45"/>
<polygon fill="black" stroke="black" points="356.14,-601.63 359.51,-611.68 363.14,-601.72 356.14,-601.63"/>
<text text-anchor="middle" x="384.04" y="-553.3" font-family="Times,serif" font-size="14.00">Retries</text>
</g>
<!-- GSM_ReadDevice -->
<g id="node6" class="node">
<title>GSM_ReadDevice</title>
<ellipse fill="none" stroke="black" cx="239.04" cy="-397" rx="92.88" ry="18"/>
<text text-anchor="middle" x="239.04" y="-393.3" font-family="Times,serif" font-size="14.00">GSM_ReadDevice</text>
</g>
<!-- GSM_WaitForOnce&#45;&gt;GSM_ReadDevice -->
<g id="edge6" class="edge">
<title>GSM_WaitForOnce&#45;&gt;GSM_ReadDevice</title>
<path fill="none" stroke="black" d="M236.65,-465.87C236.04,-456.22 235.57,-443.94 236.04,-433 236.14,-430.44 236.3,-427.78 236.48,-425.12"/>
<polygon fill="black" stroke="black" points="239.98,-425.32 237.28,-415.07 233,-424.76 239.98,-425.32"/>
</g>
<!-- GSM_ReadDevice&#45;&gt;GSM_WaitForOnce -->
<g id="edge7" class="edge">
<title>GSM_ReadDevice&#45;&gt;GSM_WaitForOnce</title>
<path fill="none" stroke="black" d="M238.83,-415.18C238.7,-426.81 238.51,-442.42 238.36,-455.73"/>
<polygon fill="black" stroke="black" points="234.86,-455.76 238.24,-465.8 241.86,-455.84 234.86,-455.76"/>
<text text-anchor="middle" x="332.54" y="-436.8" font-family="Times,serif" font-size="14.00">Wair for complete request</text>
</g>
<!-- Device.Functions.ReadDevice -->
<g id="node7" class="node">
<title>Device.Functions.ReadDevice</title>
<ellipse fill="none" stroke="black" cx="260.04" cy="-310" rx="148.37" ry="18"/>
<text text-anchor="middle" x="260.04" y="-306.3" font-family="Times,serif" font-size="14.00">Device.Functions.ReadDevice</text>
</g>
<!-- GSM_ReadDevice&#45;&gt;Device.Functions.ReadDevice -->
<g id="edge8" class="edge">
<title>GSM_ReadDevice&#45;&gt;Device.Functions.ReadDevice</title>
<path fill="none" stroke="black" d="M239.9,-378.65C240.68,-368.92 242.18,-356.64 245.04,-346 245.79,-343.19 246.73,-340.3 247.77,-337.46"/>
<polygon fill="black" stroke="black" points="251.05,-338.68 251.55,-328.1 244.56,-336.06 251.05,-338.68"/>
</g>
<!-- Device.Functions.ReadDevice&#45;&gt;GSM_ReadDevice -->
<g id="edge9" class="edge">
<title>Device.Functions.ReadDevice&#45;&gt;GSM_ReadDevice</title>
<path fill="none" stroke="black" d="M255.79,-328.18C252.92,-339.81 249.06,-355.42 245.77,-368.73"/>
<polygon fill="black" stroke="black" points="242.29,-368.25 243.28,-378.8 249.08,-369.93 242.29,-368.25"/>
<text text-anchor="middle" x="298.04" y="-349.8" font-family="Times,serif" font-size="14.00">Wait for data</text>
</g>
<!-- Protocol.Functions.StateMachine -->
<g id="node8" class="node">
<title>Protocol.Functions.StateMachine</title>
<ellipse fill="none" stroke="black" cx="260.04" cy="-237" rx="165.17" ry="18"/>
<text text-anchor="middle" x="260.04" y="-233.3" font-family="Times,serif" font-size="14.00">Protocol.Functions.StateMachine</text>
</g>
<!-- Device.Functions.ReadDevice&#45;&gt;Protocol.Functions.StateMachine -->
<g id="edge10" class="edge">
<title>Device.Functions.ReadDevice&#45;&gt;Protocol.Functions.StateMachine</title>
<path fill="none" stroke="black" d="M260.04,-291.81C260.04,-283.79 260.04,-274.05 260.04,-265.07"/>
<polygon fill="black" stroke="black" points="263.54,-265.03 260.04,-255.03 256.54,-265.03 263.54,-265.03"/>
</g>
<!-- Phone.Functions.DispatchMessage -->
<g id="node9" class="node">
<title>Phone.Functions.DispatchMessage</title>
<ellipse fill="none" stroke="black" cx="260.04" cy="-164" rx="172.77" ry="18"/>
<text text-anchor="middle" x="260.04" y="-160.3" font-family="Times,serif" font-size="14.00">Phone.Functions.DispatchMessage</text>
</g>
<!-- Protocol.Functions.StateMachine&#45;&gt;Phone.Functions.DispatchMessage -->
<g id="edge11" class="edge">
<title>Protocol.Functions.StateMachine&#45;&gt;Phone.Functions.DispatchMessage</title>
<path fill="none" stroke="black" d="M260.04,-218.81C260.04,-210.79 260.04,-201.05 260.04,-192.07"/>
<polygon fill="black" stroke="black" points="263.54,-192.03 260.04,-182.03 256.54,-192.03 263.54,-192.03"/>
</g>
<!-- GSM_DispatchMessage -->
<g id="node10" class="node">
<title>GSM_DispatchMessage</title>
<ellipse fill="none" stroke="black" cx="300.04" cy="-91" rx="120.48" ry="18"/>
<text text-anchor="middle" x="300.04" y="-87.3" font-family="Times,serif" font-size="14.00">GSM_DispatchMessage</text>
</g>
<!-- Phone.Functions.DispatchMessage&#45;&gt;GSM_DispatchMessage -->
<g id="edge12" class="edge">
<title>Phone.Functions.DispatchMessage&#45;&gt;GSM_DispatchMessage</title>
<path fill="none" stroke="black" d="M269.72,-145.81C274.43,-137.44 280.21,-127.2 285.44,-117.9"/>
<polygon fill="black" stroke="black" points="288.58,-119.46 290.44,-109.03 282.48,-116.02 288.58,-119.46"/>
</g>
<!-- Phone.Functions.ReplyFunctions[]() -->
<g id="node11" class="node">
<title>Phone.Functions.ReplyFunctions[]()</title>
<ellipse fill="none" stroke="black" cx="387.04" cy="-18" rx="176.57" ry="18"/>
<text text-anchor="middle" x="387.04" y="-14.3" font-family="Times,serif" font-size="14.00">Phone.Functions.ReplyFunctions[]()</text>
</g>
<!-- GSM_DispatchMessage&#45;&gt;Phone.Functions.ReplyFunctions[]() -->
<g id="edge13" class="edge">
<title>GSM_DispatchMessage&#45;&gt;Phone.Functions.ReplyFunctions[]()</title>
<path fill="none" stroke="black" d="M320.65,-73.17C331.95,-63.96 346.12,-52.39 358.46,-42.32"/>
<polygon fill="black" stroke="black" points="360.73,-44.99 366.26,-35.95 356.3,-39.56 360.73,-44.99"/>
</g>
<!-- Phone.Functions.ReplyFunctions[]()&#45;&gt;Phone.Functions.GetModel -->
<g id="edge14" class="edge">
<title>Phone.Functions.ReplyFunctions[]()&#45;&gt;Phone.Functions.GetModel</title>
<path fill="none" stroke="black" d="M421.44,-35.75C440.76,-47.81 461.04,-66.14 461.04,-90 461.04,-631 461.04,-631 461.04,-631 461.04,-648.97 450.06,-665.41 438.2,-677.94"/>
<polygon fill="black" stroke="black" points="435.47,-675.71 430.79,-685.21 440.38,-680.7 435.47,-675.71"/>
</g>
</g>
</svg>
